<svg width="24" height="24" viewBox="0 0 24 24" fill="none" xmlns="http://www.w3.org/2000/svg">
<g clip-path="url(#clip0_493_1942)">
<path fill-rule="evenodd" clip-rule="evenodd" d="M18.384 22.7789C18.706 23.0069 19.121 23.0639 19.491 22.9239C19.861 22.7829 20.133 22.4669 20.215 22.0839C21.084 17.9999 23.192 7.6629 23.983 3.9479C24.043 3.6679 23.943 3.3769 23.723 3.1899C23.503 3.0029 23.198 2.9489 22.926 3.0499C18.733 4.6019 5.82 9.4469 0.542001 11.3999C0.207001 11.5239 -0.0109989 11.8459 1.12521e-06 12.1989C0.0120011 12.5529 0.250001 12.8599 0.593001 12.9629C2.96 13.6709 6.067 14.6559 6.067 14.6559C6.067 14.6559 7.519 19.0409 8.276 21.2709C8.371 21.5509 8.59 21.7709 8.879 21.8469C9.167 21.9219 9.475 21.8429 9.69 21.6399C10.906 20.4919 12.786 18.7169 12.786 18.7169C12.786 18.7169 16.358 21.3359 18.384 22.7789ZM7.374 14.1019L9.053 19.6399L9.426 16.1329C9.426 16.1329 15.913 10.2819 19.611 6.9469C19.719 6.8489 19.734 6.6849 19.644 6.5699C19.555 6.4549 19.391 6.4279 19.268 6.5059C14.982 9.2429 7.374 14.1019 7.374 14.1019Z" fill="white"/>
</g>
<defs>
<clipPath id="clip0_493_1942">
<rect width="24" height="24" fill="white"/>
</clipPath>
</defs>
</svg>
